<svg width="1456" height="678" viewBox="0 0 1456 678" fill="none" xmlns="http://www.w3.org/2000/svg">
<g opacity="0.3">
<path opacity="0.17" d="M698.753 341.117C728.742 341.117 753.054 319.938 753.054 293.812C753.054 267.687 728.742 246.508 698.753 246.508C668.763 246.508 644.451 267.687 644.451 293.812C644.451 319.938 668.763 341.117 698.753 341.117Z" fill="url(#paint0_radial_466_11685)"/>
<path opacity="0.1" d="M675.038 543.363C705.028 543.363 729.339 522.184 729.339 496.059C729.339 469.933 705.028 448.754 675.038 448.754C645.048 448.754 620.736 469.933 620.736 496.059C620.736 522.184 645.048 543.363 675.038 543.363Z" fill="url(#paint1_radial_466_11685)"/>
<path opacity="0.1" d="M381.09 531.945C411.08 531.945 435.392 510.766 435.392 484.641C435.392 458.515 411.08 437.336 381.09 437.336C351.101 437.336 326.789 458.515 326.789 484.641C326.789 510.766 351.101 531.945 381.09 531.945Z" fill="url(#paint2_radial_466_11685)"/>
<path opacity="0.17" d="M590.473 453.113C620.463 453.113 644.775 431.934 644.775 405.809C644.775 379.683 620.463 358.504 590.473 358.504C560.483 358.504 536.172 379.683 536.172 405.809C536.172 431.934 560.483 453.113 590.473 453.113Z" fill="url(#paint3_radial_466_11685)"/>
<path opacity="0.19" d="M597.026 254.129C627.016 254.129 651.327 232.95 651.327 206.824C651.327 180.699 627.016 159.52 597.026 159.52C567.036 159.52 542.725 180.699 542.725 206.824C542.725 232.95 567.036 254.129 597.026 254.129Z" fill="url(#paint4_radial_466_11685)"/>
<path opacity="0.19" d="M89.6412 204.379C119.631 204.379 143.943 183.2 143.943 157.074C143.943 130.949 119.631 109.77 89.6412 109.77C59.6514 109.77 35.3398 130.949 35.3398 157.074C35.3398 183.2 59.6514 204.379 89.6412 204.379Z" fill="url(#paint5_radial_466_11685)"/>
<path opacity="0.19" d="M1400.99 349.265C1430.98 349.265 1455.29 328.087 1455.29 301.961C1455.29 275.835 1430.98 254.656 1400.99 254.656C1371 254.656 1346.69 275.835 1346.69 301.961C1346.69 328.087 1371 349.265 1400.99 349.265Z" fill="url(#paint6_radial_466_11685)"/>
<path opacity="0.09" d="M823.883 297.894C853.873 297.894 878.185 276.715 878.185 250.59C878.185 224.464 853.873 203.285 823.883 203.285C793.894 203.285 769.582 224.464 769.582 250.59C769.582 276.715 793.894 297.894 823.883 297.894Z" fill="url(#paint7_radial_466_11685)"/>
<path opacity="0.09" d="M979.282 442.242C1009.27 442.242 1033.58 421.063 1033.58 394.937C1033.58 368.812 1009.27 347.633 979.282 347.633C949.292 347.633 924.98 368.812 924.98 394.937C924.98 421.063 949.292 442.242 979.282 442.242Z" fill="url(#paint8_radial_466_11685)"/>
<path opacity="0.05" d="M937.155 198.672C967.145 198.672 991.456 177.493 991.456 151.367C991.456 125.242 967.145 104.062 937.155 104.062C907.165 104.062 882.854 125.242 882.854 151.367C882.854 177.493 907.165 198.672 937.155 198.672Z" fill="url(#paint9_radial_466_11685)"/>
<path opacity="0.05" d="M1368.09 299.798C1401.18 299.798 1428.01 276.428 1428.01 247.6C1428.01 218.772 1401.18 195.402 1368.09 195.402C1335 195.402 1308.17 218.772 1308.17 247.6C1308.17 276.428 1335 299.798 1368.09 299.798Z" fill="url(#paint10_radial_466_11685)"/>
<path opacity="0.05" d="M258.458 215.527C288.447 215.527 312.759 194.348 312.759 168.223C312.759 142.097 288.447 120.918 258.458 120.918C228.468 120.918 204.156 142.097 204.156 168.223C204.156 194.348 228.468 215.527 258.458 215.527Z" fill="url(#paint11_radial_466_11685)"/>
<path opacity="0.05" d="M299.649 461.812C329.639 461.812 353.95 440.633 353.95 414.508C353.95 388.382 329.639 367.203 299.649 367.203C269.659 367.203 245.348 388.382 245.348 414.508C245.348 440.633 269.659 461.812 299.649 461.812Z" fill="url(#paint12_radial_466_11685)"/>
<path opacity="0.05" d="M866.321 494.433C896.311 494.433 920.622 473.254 920.622 447.129C920.622 421.003 896.311 399.824 866.321 399.824C836.331 399.824 812.02 421.003 812.02 447.129C812.02 473.254 836.331 494.433 866.321 494.433Z" fill="url(#paint13_radial_466_11685)"/>
<path opacity="0.09" d="M55.0045 584.683C84.9943 584.683 109.306 563.504 109.306 537.379C109.306 511.253 84.9943 490.074 55.0045 490.074C25.0147 490.074 0.703125 511.253 0.703125 537.379C0.703125 563.504 25.0147 584.683 55.0045 584.683Z" fill="url(#paint14_radial_466_11685)"/>
<path opacity="0.05" d="M217.268 94.8319C247.258 94.8319 271.57 73.6529 271.57 47.5273C271.57 21.4017 247.258 0.222656 217.268 0.222656C187.278 0.222656 162.967 21.4017 162.967 47.5273C162.967 73.6529 187.278 94.8319 217.268 94.8319Z" fill="url(#paint15_radial_466_11685)"/>
<path opacity="0.05" d="M259.706 640.695C289.695 640.695 314.007 619.516 314.007 593.391C314.007 567.265 289.695 546.086 259.706 546.086C229.716 546.086 205.404 567.265 205.404 593.391C205.404 619.516 229.716 640.695 259.706 640.695Z" fill="url(#paint16_radial_466_11685)"/>
<path opacity="0.05" d="M1113.46 573.265C1143.45 573.265 1167.76 552.086 1167.76 525.961C1167.76 499.835 1143.45 478.656 1113.46 478.656C1083.47 478.656 1059.16 499.835 1059.16 525.961C1059.16 552.086 1083.47 573.265 1113.46 573.265Z" fill="url(#paint17_radial_466_11685)"/>
<path opacity="0.05" d="M409.176 465.074C439.166 465.074 463.478 443.895 463.478 417.769C463.478 391.644 439.166 370.465 409.176 370.465C379.187 370.465 354.875 391.644 354.875 417.769C354.875 443.895 379.187 465.074 409.176 465.074Z" fill="url(#paint18_radial_466_11685)"/>
<path opacity="0.1" d="M1241.09 608.074C1271.08 608.074 1295.39 586.895 1295.39 560.77C1295.39 534.644 1271.08 513.465 1241.09 513.465C1211.1 513.465 1186.79 534.644 1186.79 560.77C1186.79 586.895 1211.1 608.074 1241.09 608.074Z" fill="url(#paint19_radial_466_11685)"/>
<path opacity="0.05" d="M1250.45 539.015C1280.44 539.015 1304.75 517.836 1304.75 491.711C1304.75 465.585 1280.44 444.406 1250.45 444.406C1220.46 444.406 1196.15 465.585 1196.15 491.711C1196.15 517.836 1220.46 539.015 1250.45 539.015Z" fill="url(#paint20_radial_466_11685)"/>
<path opacity="0.05" d="M984.899 394.125C1014.89 394.125 1039.2 372.946 1039.2 346.82C1039.2 320.695 1014.89 299.516 984.899 299.516C954.909 299.516 930.598 320.695 930.598 346.82C930.598 372.946 954.909 394.125 984.899 394.125Z" fill="url(#paint21_radial_466_11685)"/>
<path opacity="0.85" d="M822.321 397.376C848.686 397.376 870.058 378.757 870.058 355.789C870.058 332.822 848.686 314.203 822.321 314.203C795.957 314.203 774.584 332.822 774.584 355.789C774.584 378.757 795.957 397.376 822.321 397.376Z" fill="url(#paint22_radial_466_11685)"/>
<path opacity="0.85" d="M821.075 389.766C847.44 389.766 868.812 371.147 868.812 348.18C868.812 325.213 847.44 306.594 821.075 306.594C794.711 306.594 773.338 325.213 773.338 348.18C773.338 371.147 794.711 389.766 821.075 389.766Z" fill="url(#paint23_radial_466_11685)"/>
<path opacity="0.85" d="M703.433 381.067C729.797 381.067 751.17 362.448 751.17 339.481C751.17 316.513 729.797 297.895 703.433 297.895C677.068 297.895 655.695 316.513 655.695 339.481C655.695 362.448 677.068 381.067 703.433 381.067Z" fill="url(#paint24_radial_466_11685)"/>
<path opacity="0.85" d="M703.433 381.067C729.797 381.067 751.17 362.448 751.17 339.481C751.17 316.513 729.797 297.895 703.433 297.895C677.068 297.895 655.695 316.513 655.695 339.481C655.695 362.448 677.068 381.067 703.433 381.067Z" fill="url(#paint25_radial_466_11685)"/>
<path opacity="0.85" d="M539.608 452.833C565.973 452.833 587.346 434.214 587.346 411.246C587.346 388.279 565.973 369.66 539.608 369.66C513.244 369.66 491.871 388.279 491.871 411.246C491.871 434.214 513.244 452.833 539.608 452.833Z" fill="url(#paint26_radial_466_11685)"/>
<path opacity="0.64" d="M589.224 290.544C615.588 290.544 636.961 271.925 636.961 248.957C636.961 225.99 615.588 207.371 589.224 207.371C562.859 207.371 541.486 225.99 541.486 248.957C541.486 271.925 562.859 290.544 589.224 290.544Z" fill="url(#paint27_radial_466_11685)"/>
<path opacity="0.85" d="M827.315 437.337C853.68 437.337 875.053 418.718 875.053 395.75C875.053 372.783 853.68 354.164 827.315 354.164C800.951 354.164 779.578 372.783 779.578 395.75C779.578 418.718 800.951 437.337 827.315 437.337Z" fill="url(#paint28_linear_466_11685)"/>
<path opacity="0.85" d="M1326.59 432.173C1352.95 432.173 1374.32 413.554 1374.32 390.586C1374.32 367.619 1352.95 349 1326.59 349C1300.22 349 1278.85 367.619 1278.85 390.586C1278.85 413.554 1300.22 432.173 1326.59 432.173Z" fill="url(#paint29_radial_466_11685)"/>
<path opacity="0.6" d="M1326.59 417.493C1352.95 417.493 1374.32 398.874 1374.32 375.907C1374.32 352.939 1352.95 334.32 1326.59 334.32C1300.22 334.32 1278.85 352.939 1278.85 375.907C1278.85 398.874 1300.22 417.493 1326.59 417.493Z" fill="url(#paint30_radial_466_11685)"/>
<path opacity="0.85" d="M1332.83 479.743C1359.19 479.743 1380.56 461.124 1380.56 438.157C1380.56 415.189 1359.19 396.57 1332.83 396.57C1306.46 396.57 1285.09 415.189 1285.09 438.157C1285.09 461.124 1306.46 479.743 1332.83 479.743Z" fill="url(#paint31_linear_466_11685)"/>
<path opacity="0.85" d="M703.745 443.86C730.11 443.86 751.482 425.241 751.482 402.274C751.482 379.306 730.11 360.688 703.745 360.688C677.38 360.688 656.008 379.306 656.008 402.274C656.008 425.241 677.38 443.86 703.745 443.86Z" fill="url(#paint32_linear_466_11685)"/>
<path opacity="0.37" d="M1357.17 575.157C1383.53 575.157 1404.9 556.538 1404.9 533.571C1404.9 510.603 1383.53 491.984 1357.17 491.984C1330.8 491.984 1309.43 510.603 1309.43 533.571C1309.43 556.538 1330.8 575.157 1357.17 575.157Z" fill="url(#paint33_linear_466_11685)"/>
<path opacity="0.85" d="M633.847 565.645C660.211 565.645 681.584 547.026 681.584 524.059C681.584 501.091 660.211 482.473 633.847 482.473C607.482 482.473 586.109 501.091 586.109 524.059C586.109 547.026 607.482 565.645 633.847 565.645Z" fill="url(#paint34_linear_466_11685)"/>
<path opacity="0.85" d="M523.384 630.083C549.748 630.083 571.121 611.464 571.121 588.496C571.121 565.529 549.748 546.91 523.384 546.91C497.019 546.91 475.646 565.529 475.646 588.496C475.646 611.464 497.019 630.083 523.384 630.083Z" fill="url(#paint35_linear_466_11685)"/>
<path opacity="0.85" d="M525.88 622.473C552.244 622.473 573.617 603.854 573.617 580.887C573.617 557.92 552.244 539.301 525.88 539.301C499.515 539.301 478.143 557.92 478.143 580.887C478.143 603.854 499.515 622.473 525.88 622.473Z" fill="url(#paint36_linear_466_11685)"/>
<path opacity="0.27" d="M491.556 677.926C517.92 677.926 539.293 659.308 539.293 636.34C539.293 613.373 517.92 594.754 491.556 594.754C465.191 594.754 443.818 613.373 443.818 636.34C443.818 659.308 465.191 677.926 491.556 677.926Z" fill="url(#paint37_linear_466_11685)"/>
<path opacity="0.85" d="M562.39 332.95C588.754 332.95 610.127 314.331 610.127 291.364C610.127 268.396 588.754 249.777 562.39 249.777C536.025 249.777 514.652 268.396 514.652 291.364C514.652 314.331 536.025 332.95 562.39 332.95Z" fill="url(#paint38_linear_466_11685)"/>
<path opacity="0.85" d="M89.6415 251.399C116.006 251.399 137.379 232.78 137.379 209.813C137.379 186.845 116.006 168.227 89.6415 168.227C63.277 168.227 41.9043 186.845 41.9043 209.813C41.9043 232.78 63.277 251.399 89.6415 251.399Z" fill="url(#paint39_linear_466_11685)"/>
<path opacity="0.31" d="M197.296 239.169C223.66 239.169 245.033 220.55 245.033 197.582C245.033 174.615 223.66 155.996 197.296 155.996C170.931 155.996 149.559 174.615 149.559 197.582C149.559 220.55 170.931 239.169 197.296 239.169Z" fill="url(#paint40_linear_466_11685)"/>
<path opacity="0.21" d="M203.538 191.325C229.903 191.325 251.275 172.706 251.275 149.739C251.275 126.771 229.903 108.152 203.538 108.152C177.173 108.152 155.801 126.771 155.801 149.739C155.801 172.706 177.173 191.325 203.538 191.325Z" fill="url(#paint41_linear_466_11685)"/>
<path opacity="0.31" d="M973.665 491.43C1000.03 491.43 1021.4 472.812 1021.4 449.844C1021.4 426.877 1000.03 408.258 973.665 408.258C947.3 408.258 925.928 426.877 925.928 449.844C925.928 472.812 947.3 491.43 973.665 491.43Z" fill="url(#paint42_linear_466_11685)"/>
<path opacity="0.23" d="M978.655 538.188C1005.02 538.188 1026.39 519.569 1026.39 496.602C1026.39 473.634 1005.02 455.016 978.655 455.016C952.291 455.016 930.918 473.634 930.918 496.602C930.918 519.569 952.291 538.188 978.655 538.188Z" fill="url(#paint43_linear_466_11685)"/>
<path opacity="0.31" d="M115.852 404.715C142.217 404.715 163.59 386.097 163.59 363.129C163.59 340.162 142.217 321.543 115.852 321.543C89.4879 321.543 68.1152 340.162 68.1152 363.129C68.1152 386.097 89.4879 404.715 115.852 404.715Z" fill="url(#paint44_linear_466_11685)"/>
<path opacity="0.31" d="M493.114 331.321C519.479 331.321 540.851 312.702 540.851 289.735C540.851 266.767 519.479 248.148 493.114 248.148C466.75 248.148 445.377 266.767 445.377 289.735C445.377 312.702 466.75 331.321 493.114 331.321Z" fill="url(#paint45_linear_466_11685)"/>
<path opacity="0.31" d="M838.862 622.743C865.227 622.743 886.599 604.124 886.599 581.157C886.599 558.189 865.227 539.57 838.862 539.57C812.498 539.57 791.125 558.189 791.125 581.157C791.125 604.124 812.498 622.743 838.862 622.743Z" fill="url(#paint46_linear_466_11685)"/>
<path opacity="0.31" d="M1381.82 306.309C1408.18 306.309 1429.56 287.69 1429.56 264.723C1429.56 241.756 1408.18 223.137 1381.82 223.137C1355.45 223.137 1334.08 241.756 1334.08 264.723C1334.08 287.69 1355.45 306.309 1381.82 306.309Z" fill="url(#paint47_linear_466_11685)"/>
<path opacity="0.14" d="M842.604 670.587C868.969 670.587 890.342 651.968 890.342 629C890.342 606.033 868.969 587.414 842.604 587.414C816.24 587.414 794.867 606.033 794.867 629C794.867 651.968 816.24 670.587 842.604 670.587Z" fill="url(#paint48_linear_466_11685)"/>
<path opacity="0.19" d="M1189.91 360.687C1219.9 360.687 1244.21 339.508 1244.21 313.383C1244.21 287.257 1219.9 266.078 1189.91 266.078C1159.92 266.078 1135.61 287.257 1135.61 313.383C1135.61 339.508 1159.92 360.687 1189.91 360.687Z" fill="url(#paint49_radial_466_11685)"/>
<path opacity="0.64" d="M1182.11 397.106C1208.47 397.106 1229.85 378.487 1229.85 355.52C1229.85 332.552 1208.47 313.934 1182.11 313.934C1155.74 313.934 1134.37 332.552 1134.37 355.52C1134.37 378.487 1155.74 397.106 1182.11 397.106Z" fill="url(#paint50_radial_466_11685)"/>
<path opacity="0.64" d="M1047.31 544.985C1073.67 544.985 1095.04 526.366 1095.04 503.399C1095.04 480.431 1073.67 461.812 1047.31 461.812C1020.94 461.812 999.568 480.431 999.568 503.399C999.568 526.366 1020.94 544.985 1047.31 544.985Z" fill="url(#paint51_radial_466_11685)"/>
<path opacity="0.85" d="M1155.27 439.512C1181.64 439.512 1203.01 420.894 1203.01 397.926C1203.01 374.959 1181.64 356.34 1155.27 356.34C1128.91 356.34 1107.54 374.959 1107.54 397.926C1107.54 420.894 1128.91 439.512 1155.27 439.512Z" fill="url(#paint52_linear_466_11685)"/>
<path opacity="0.85" d="M1296.32 547.157C1322.68 547.157 1344.05 528.538 1344.05 505.571C1344.05 482.603 1322.68 463.984 1296.32 463.984C1269.95 463.984 1248.58 482.603 1248.58 505.571C1248.58 528.538 1269.95 547.157 1296.32 547.157Z" fill="url(#paint53_linear_466_11685)"/>
<path opacity="0.31" d="M1086 437.88C1112.37 437.88 1133.74 419.261 1133.74 396.293C1133.74 373.326 1112.37 354.707 1086 354.707C1059.64 354.707 1038.26 373.326 1038.26 396.293C1038.26 419.261 1059.64 437.88 1086 437.88Z" fill="url(#paint54_linear_466_11685)"/>
<path opacity="0.21" d="M552.091 501.762C578.455 501.762 599.828 483.144 599.828 460.176C599.828 437.209 578.455 418.59 552.091 418.59C525.726 418.59 504.354 437.209 504.354 460.176C504.354 483.144 525.726 501.762 552.091 501.762Z" fill="url(#paint55_linear_466_11685)"/>
<path opacity="0.17" d="M1267.92 214.711C1297.91 214.711 1322.22 193.532 1322.22 167.406C1322.22 141.281 1297.91 120.102 1267.92 120.102C1237.93 120.102 1213.62 141.281 1213.62 167.406C1213.62 193.532 1237.93 214.711 1267.92 214.711Z" fill="url(#paint56_radial_466_11685)"/>
<path opacity="0.85" d="M1219.87 216.876C1246.23 216.876 1267.6 198.257 1267.6 175.289C1267.6 152.322 1246.23 133.703 1219.87 133.703C1193.5 133.703 1172.13 152.322 1172.13 175.289C1172.13 198.257 1193.5 216.876 1219.87 216.876Z" fill="url(#paint57_radial_466_11685)"/>
<path opacity="0.21" d="M1225.8 262.544C1252.16 262.544 1273.53 243.925 1273.53 220.957C1273.53 197.99 1252.16 179.371 1225.8 179.371C1199.43 179.371 1178.06 197.99 1178.06 220.957C1178.06 243.925 1199.43 262.544 1225.8 262.544Z" fill="url(#paint58_linear_466_11685)"/>
<path opacity="0.54" d="M931.225 345.184C957.59 345.184 978.963 326.565 978.963 303.598C978.963 280.631 957.59 262.012 931.225 262.012C904.861 262.012 883.488 280.631 883.488 303.598C883.488 326.565 904.861 345.184 931.225 345.184Z" fill="url(#paint59_linear_466_11685)"/>
<path opacity="0.64" d="M424.153 561.567C450.518 561.567 471.89 542.948 471.89 519.981C471.89 497.013 450.518 478.395 424.153 478.395C397.789 478.395 376.416 497.013 376.416 519.981C376.416 542.948 397.789 561.567 424.153 561.567Z" fill="url(#paint60_radial_466_11685)"/>
<path opacity="0.64" d="M162.036 583.325C188.401 583.325 209.773 564.706 209.773 541.739C209.773 518.771 188.401 500.152 162.036 500.152C135.672 500.152 114.299 518.771 114.299 541.739C114.299 564.706 135.672 583.325 162.036 583.325Z" fill="url(#paint61_radial_466_11685)"/>
<path opacity="0.85" d="M400.126 604.801C426.49 604.801 447.863 586.183 447.863 563.215C447.863 540.248 426.49 521.629 400.126 521.629C373.761 521.629 352.389 540.248 352.389 563.215C352.389 586.183 373.761 604.801 400.126 604.801Z" fill="url(#paint62_linear_466_11685)"/>
<path opacity="0.64" d="M184.503 332.407C210.867 332.407 232.24 313.788 232.24 290.821C232.24 267.853 210.867 249.234 184.503 249.234C158.138 249.234 136.766 267.853 136.766 290.821C136.766 313.788 158.138 332.407 184.503 332.407Z" fill="url(#paint63_radial_466_11685)"/>
<path opacity="0.29" d="M166.718 492.247C193.082 492.247 214.455 473.628 214.455 450.66C214.455 427.693 193.082 409.074 166.718 409.074C140.353 409.074 118.98 427.693 118.98 450.66C118.98 473.628 140.353 492.247 166.718 492.247Z" fill="url(#paint64_radial_466_11685)"/>
<path opacity="0.15" d="M184.19 535.743C210.555 535.743 231.928 517.124 231.928 494.157C231.928 471.189 210.555 452.57 184.19 452.57C157.826 452.57 136.453 471.189 136.453 494.157C136.453 517.124 157.826 535.743 184.19 535.743Z" fill="url(#paint65_radial_466_11685)"/>
<path opacity="0.85" d="M160.475 375.63C186.84 375.63 208.213 357.011 208.213 334.043C208.213 311.076 186.84 292.457 160.475 292.457C134.111 292.457 112.738 311.076 112.738 334.043C112.738 357.011 134.111 375.63 160.475 375.63Z" fill="url(#paint66_linear_466_11685)"/>
<path opacity="0.45" d="M341.462 403.63C367.826 403.63 389.199 385.011 389.199 362.043C389.199 339.076 367.826 320.457 341.462 320.457C315.097 320.457 293.725 339.076 293.725 362.043C293.725 385.011 315.097 403.63 341.462 403.63Z" fill="url(#paint67_linear_466_11685)"/>
<path opacity="0.45" d="M341.462 376.446C367.826 376.446 389.199 357.827 389.199 334.86C389.199 311.892 367.826 293.273 341.462 293.273C315.097 293.273 293.725 311.892 293.725 334.86C293.725 357.827 315.097 376.446 341.462 376.446Z" fill="url(#paint68_linear_466_11685)"/>
<path opacity="0.45" d="M1251.38 667.868C1277.75 667.868 1299.12 649.249 1299.12 626.282C1299.12 603.314 1277.75 584.695 1251.38 584.695C1225.02 584.695 1203.65 603.314 1203.65 626.282C1203.65 649.249 1225.02 667.868 1251.38 667.868Z" fill="url(#paint69_linear_466_11685)"/>
<path opacity="0.45" d="M1251.38 640.684C1277.75 640.684 1299.12 622.065 1299.12 599.098C1299.12 576.131 1277.75 557.512 1251.38 557.512C1225.02 557.512 1203.65 576.131 1203.65 599.098C1203.65 622.065 1225.02 640.684 1251.38 640.684Z" fill="url(#paint70_linear_466_11685)"/>
<path opacity="0.25" d="M820.762 367.484C850.752 367.484 875.064 346.305 875.064 320.18C875.064 294.054 850.752 272.875 820.762 272.875C790.772 272.875 766.461 294.054 766.461 320.18C766.461 346.305 790.772 367.484 820.762 367.484Z" fill="url(#paint71_radial_466_11685)"/>
</g>
<defs>
<radialGradient id="paint0_radial_466_11685" cx="0" cy="0" r="1" gradientUnits="userSpaceOnUse" gradientTransform="translate(698.753 293.812) scale(54.3014 47.3046)">
<stop stop-color="#FFA71C" stop-opacity="0.4583"/>
<stop offset="0.8432" stop-color="#FFA71C" stop-opacity="0.4583"/>
<stop offset="1" stop-color="#FFA71C" stop-opacity="0"/>
</radialGradient>
<radialGradient id="paint1_radial_466_11685" cx="0" cy="0" r="1" gradientUnits="userSpaceOnUse" gradientTransform="translate(675.037 496.058) scale(54.3014 47.3046)">
<stop stop-color="#FFA71C" stop-opacity="0.4583"/>
<stop offset="0.8432" stop-color="#FFA71C" stop-opacity="0.4583"/>
<stop offset="1" stop-color="#FFA71C" stop-opacity="0"/>
</radialGradient>
<radialGradient id="paint2_radial_466_11685" cx="0" cy="0" r="1" gradientUnits="userSpaceOnUse" gradientTransform="translate(381.09 484.64) scale(54.3014 47.3046)">
<stop stop-color="#FFA71C" stop-opacity="0.4583"/>
<stop offset="0.8432" stop-color="#FFA71C" stop-opacity="0.4583"/>
<stop offset="1" stop-color="#FFA71C" stop-opacity="0"/>
</radialGradient>
<radialGradient id="paint3_radial_466_11685" cx="0" cy="0" r="1" gradientUnits="userSpaceOnUse" gradientTransform="translate(590.473 405.809) scale(54.3014 47.3046)">
<stop stop-color="#FFA71C" stop-opacity="0.4583"/>
<stop offset="0.8432" stop-color="#FFA71C" stop-opacity="0.4583"/>
<stop offset="1" stop-color="#FFA71C" stop-opacity="0"/>
</radialGradient>
<radialGradient id="paint4_radial_466_11685" cx="0" cy="0" r="1" gradientUnits="userSpaceOnUse" gradientTransform="translate(597.026 206.825) scale(54.3014 47.3046)">
<stop stop-color="#FFA71C" stop-opacity="0.4583"/>
<stop offset="0.8432" stop-color="#FFA71C" stop-opacity="0.4583"/>
<stop offset="1" stop-color="#FFA71C" stop-opacity="0"/>
</radialGradient>
<radialGradient id="paint5_radial_466_11685" cx="0" cy="0" r="1" gradientUnits="userSpaceOnUse" gradientTransform="translate(89.6412 157.075) scale(54.3014 47.3046)">
<stop stop-color="#FFA71C" stop-opacity="0.4583"/>
<stop offset="0.8432" stop-color="#FFA71C" stop-opacity="0.4583"/>
<stop offset="1" stop-color="#FFA71C" stop-opacity="0"/>
</radialGradient>
<radialGradient id="paint6_radial_466_11685" cx="0" cy="0" r="1" gradientUnits="userSpaceOnUse" gradientTransform="translate(1400.99 301.96) scale(54.3014 47.3046)">
<stop stop-color="#FFA71C" stop-opacity="0.4583"/>
<stop offset="0.8432" stop-color="#FFA71C" stop-opacity="0.4583"/>
<stop offset="1" stop-color="#FFA71C" stop-opacity="0"/>
</radialGradient>
<radialGradient id="paint7_radial_466_11685" cx="0" cy="0" r="1" gradientUnits="userSpaceOnUse" gradientTransform="translate(823.883 250.589) scale(54.3014 47.3046)">
<stop stop-color="#FFA71C" stop-opacity="0.4583"/>
<stop offset="0.8432" stop-color="#FFA71C" stop-opacity="0.4583"/>
<stop offset="1" stop-color="#FFA71C" stop-opacity="0"/>
</radialGradient>
<radialGradient id="paint8_radial_466_11685" cx="0" cy="0" r="1" gradientUnits="userSpaceOnUse" gradientTransform="translate(979.281 394.937) scale(54.3014 47.3046)">
<stop stop-color="#FFA71C" stop-opacity="0.4583"/>
<stop offset="0.8432" stop-color="#FFA71C" stop-opacity="0.4583"/>
<stop offset="1" stop-color="#FFA71C" stop-opacity="0"/>
</radialGradient>
<radialGradient id="paint9_radial_466_11685" cx="0" cy="0" r="1" gradientUnits="userSpaceOnUse" gradientTransform="translate(937.154 151.368) scale(54.3014 47.3046)">
<stop stop-color="#FFA71C" stop-opacity="0.4583"/>
<stop offset="0.8432" stop-color="#FFA71C" stop-opacity="0.4583"/>
<stop offset="1" stop-color="#FFA71C" stop-opacity="0"/>
</radialGradient>
<radialGradient id="paint10_radial_466_11685" cx="0" cy="0" r="1" gradientUnits="userSpaceOnUse" gradientTransform="translate(1368.09 247.601) scale(59.9182 52.1977)">
<stop stop-color="#FFA71C" stop-opacity="0.4583"/>
<stop offset="0.8432" stop-color="#FFA71C" stop-opacity="0.4583"/>
<stop offset="1" stop-color="#FFA71C" stop-opacity="0"/>
</radialGradient>
<radialGradient id="paint11_radial_466_11685" cx="0" cy="0" r="1" gradientUnits="userSpaceOnUse" gradientTransform="translate(258.457 168.222) scale(54.3014 47.3046)">
<stop stop-color="#FFA71C" stop-opacity="0.4583"/>
<stop offset="0.8432" stop-color="#FFA71C" stop-opacity="0.4583"/>
<stop offset="1" stop-color="#FFA71C" stop-opacity="0"/>
</radialGradient>
<radialGradient id="paint12_radial_466_11685" cx="0" cy="0" r="1" gradientUnits="userSpaceOnUse" gradientTransform="translate(299.648 414.507) scale(54.3014 47.3046)">
<stop stop-color="#FFA71C" stop-opacity="0.4583"/>
<stop offset="0.8432" stop-color="#FFA71C" stop-opacity="0.4583"/>
<stop offset="1" stop-color="#FFA71C" stop-opacity="0"/>
</radialGradient>
<radialGradient id="paint13_radial_466_11685" cx="0" cy="0" r="1" gradientUnits="userSpaceOnUse" gradientTransform="translate(866.321 447.128) scale(54.3014 47.3046)">
<stop stop-color="#FFA71C" stop-opacity="0.4583"/>
<stop offset="0.8432" stop-color="#FFA71C" stop-opacity="0.4583"/>
<stop offset="1" stop-color="#FFA71C" stop-opacity="0"/>
</radialGradient>
<radialGradient id="paint14_radial_466_11685" cx="0" cy="0" r="1" gradientUnits="userSpaceOnUse" gradientTransform="translate(55.0045 537.379) scale(54.3014 47.3046)">
<stop stop-color="#FFA71C" stop-opacity="0.4583"/>
<stop offset="0.8432" stop-color="#FFA71C" stop-opacity="0.4583"/>
<stop offset="1" stop-color="#FFA71C" stop-opacity="0"/>
</radialGradient>
<radialGradient id="paint15_radial_466_11685" cx="0" cy="0" r="1" gradientUnits="userSpaceOnUse" gradientTransform="translate(217.267 47.5268) scale(54.3014 47.3046)">
<stop stop-color="#FFA71C" stop-opacity="0.4583"/>
<stop offset="0.8432" stop-color="#FFA71C" stop-opacity="0.4583"/>
<stop offset="1" stop-color="#FFA71C" stop-opacity="0"/>
</radialGradient>
<radialGradient id="paint16_radial_466_11685" cx="0" cy="0" r="1" gradientUnits="userSpaceOnUse" gradientTransform="translate(259.706 593.391) scale(54.3014 47.3046)">
<stop stop-color="#FFA71C" stop-opacity="0.4583"/>
<stop offset="0.8432" stop-color="#FFA71C" stop-opacity="0.4583"/>
<stop offset="1" stop-color="#FFA71C" stop-opacity="0"/>
</radialGradient>
<radialGradient id="paint17_radial_466_11685" cx="0" cy="0" r="1" gradientUnits="userSpaceOnUse" gradientTransform="translate(1113.46 525.961) scale(54.3014 47.3046)">
<stop stop-color="#FFA71C" stop-opacity="0.4583"/>
<stop offset="0.8432" stop-color="#FFA71C" stop-opacity="0.4583"/>
<stop offset="1" stop-color="#FFA71C" stop-opacity="0"/>
</radialGradient>
<radialGradient id="paint18_radial_466_11685" cx="0" cy="0" r="1" gradientUnits="userSpaceOnUse" gradientTransform="translate(409.176 417.769) scale(54.3014 47.3046)">
<stop stop-color="#FFA71C" stop-opacity="0.4583"/>
<stop offset="0.8432" stop-color="#FFA71C" stop-opacity="0.4583"/>
<stop offset="1" stop-color="#FFA71C" stop-opacity="0"/>
</radialGradient>
<radialGradient id="paint19_radial_466_11685" cx="0" cy="0" r="1" gradientUnits="userSpaceOnUse" gradientTransform="translate(1241.09 560.77) scale(54.3014 47.3046)">
<stop stop-color="#FFA71C" stop-opacity="0.4583"/>
<stop offset="0.8432" stop-color="#FFA71C" stop-opacity="0.4583"/>
<stop offset="1" stop-color="#FFA71C" stop-opacity="0"/>
</radialGradient>
<radialGradient id="paint20_radial_466_11685" cx="0" cy="0" r="1" gradientUnits="userSpaceOnUse" gradientTransform="translate(1250.45 491.711) scale(54.3014 47.3046)">
<stop stop-color="#FFA71C" stop-opacity="0.4583"/>
<stop offset="0.8432" stop-color="#FFA71C" stop-opacity="0.4583"/>
<stop offset="1" stop-color="#FFA71C" stop-opacity="0"/>
</radialGradient>
<radialGradient id="paint21_radial_466_11685" cx="0" cy="0" r="1" gradientUnits="userSpaceOnUse" gradientTransform="translate(984.898 346.82) scale(54.3014 47.3046)">
<stop stop-color="#FFA71C" stop-opacity="0.4583"/>
<stop offset="0.8432" stop-color="#FFA71C" stop-opacity="0.4583"/>
<stop offset="1" stop-color="#FFA71C" stop-opacity="0"/>
</radialGradient>
<radialGradient id="paint22_radial_466_11685" cx="0" cy="0" r="1" gradientUnits="userSpaceOnUse" gradientTransform="translate(822.322 355.789) scale(47.7372 41.5863)">
<stop stop-color="#FFA71C" stop-opacity="0.4583"/>
<stop offset="0.6451" stop-color="#FFA71C" stop-opacity="0.4"/>
<stop offset="0.8412" stop-color="#FFA71C" stop-opacity="0.4"/>
<stop offset="0.8962" stop-color="#FFB01C" stop-opacity="0.4994"/>
<stop offset="0.8965" stop-color="#FFB01C" stop-opacity="0.5"/>
<stop offset="0.9317" stop-color="#FFB01C" stop-opacity="0.5"/>
<stop offset="1" stop-color="#FFA71C" stop-opacity="0"/>
</radialGradient>
<radialGradient id="paint23_radial_466_11685" cx="0" cy="0" r="1" gradientUnits="userSpaceOnUse" gradientTransform="translate(821.074 348.18) scale(47.7372 41.5863)">
<stop stop-color="#FFA71C" stop-opacity="0.4583"/>
<stop offset="0.6451" stop-color="#FFA71C" stop-opacity="0.4"/>
<stop offset="0.8412" stop-color="#FFA71C" stop-opacity="0.4"/>
<stop offset="0.8962" stop-color="#FFB01C" stop-opacity="0.4994"/>
<stop offset="0.8965" stop-color="#FFB01C" stop-opacity="0.5"/>
<stop offset="0.9317" stop-color="#FFB01C" stop-opacity="0.5"/>
<stop offset="1" stop-color="#FFA71C" stop-opacity="0"/>
</radialGradient>
<radialGradient id="paint24_radial_466_11685" cx="0" cy="0" r="1" gradientUnits="userSpaceOnUse" gradientTransform="translate(703.433 339.48) scale(47.7372 41.5863)">
<stop stop-color="#FFA71C" stop-opacity="0.4583"/>
<stop offset="0.6451" stop-color="#FFA71C" stop-opacity="0.4"/>
<stop offset="0.8412" stop-color="#FFA71C" stop-opacity="0.4"/>
<stop offset="0.8962" stop-color="#FFB01C" stop-opacity="0.4994"/>
<stop offset="0.8965" stop-color="#FFB01C" stop-opacity="0.5"/>
<stop offset="0.9317" stop-color="#FFB01C" stop-opacity="0.5"/>
<stop offset="1" stop-color="#FFA71C" stop-opacity="0"/>
</radialGradient>
<radialGradient id="paint25_radial_466_11685" cx="0" cy="0" r="1" gradientUnits="userSpaceOnUse" gradientTransform="translate(703.433 339.48) scale(47.7372 41.5863)">
<stop stop-color="#FFA71C" stop-opacity="0.4583"/>
<stop offset="0.6451" stop-color="#FFA71C" stop-opacity="0.4"/>
<stop offset="0.8412" stop-color="#FFA71C" stop-opacity="0.4"/>
<stop offset="0.8962" stop-color="#FFB01C" stop-opacity="0.4994"/>
<stop offset="0.8965" stop-color="#FFB01C" stop-opacity="0.5"/>
<stop offset="0.9317" stop-color="#FFB01C" stop-opacity="0.5"/>
<stop offset="1" stop-color="#FFA71C" stop-opacity="0"/>
</radialGradient>
<radialGradient id="paint26_radial_466_11685" cx="0" cy="0" r="1" gradientUnits="userSpaceOnUse" gradientTransform="translate(539.609 411.246) scale(47.7372 41.5863)">
<stop stop-color="#FFA71C" stop-opacity="0.4583"/>
<stop offset="0.6451" stop-color="#FFA71C" stop-opacity="0.4"/>
<stop offset="0.8412" stop-color="#FFA71C" stop-opacity="0.4"/>
<stop offset="0.8962" stop-color="#FFB01C" stop-opacity="0.4994"/>
<stop offset="0.8965" stop-color="#FFB01C" stop-opacity="0.5"/>
<stop offset="0.9317" stop-color="#FFB01C" stop-opacity="0.5"/>
<stop offset="1" stop-color="#FFA71C" stop-opacity="0"/>
</radialGradient>
<radialGradient id="paint27_radial_466_11685" cx="0" cy="0" r="1" gradientUnits="userSpaceOnUse" gradientTransform="translate(589.224 248.957) scale(47.7372 41.5863)">
<stop stop-color="#FFA71C" stop-opacity="0.4583"/>
<stop offset="0.6451" stop-color="#FFA71C" stop-opacity="0.4"/>
<stop offset="0.8412" stop-color="#FFA71C" stop-opacity="0.4"/>
<stop offset="0.8962" stop-color="#FFB01C" stop-opacity="0.4994"/>
<stop offset="0.8965" stop-color="#FFB01C" stop-opacity="0.5"/>
<stop offset="0.9317" stop-color="#FFB01C" stop-opacity="0.5"/>
<stop offset="1" stop-color="#FFA71C" stop-opacity="0"/>
</radialGradient>
<linearGradient id="paint28_linear_466_11685" x1="827.315" y1="357.688" x2="827.315" y2="455.844" gradientUnits="userSpaceOnUse">
<stop stop-color="#FFA71C" stop-opacity="0.4583"/>
<stop offset="1" stop-color="#FFA71C" stop-opacity="0"/>
</linearGradient>
<radialGradient id="paint29_radial_466_11685" cx="0" cy="0" r="1" gradientUnits="userSpaceOnUse" gradientTransform="translate(1326.59 390.586) scale(47.7372 41.5863)">
<stop stop-color="#FFA71C" stop-opacity="0.4583"/>
<stop offset="0.6451" stop-color="#FFA71C" stop-opacity="0.4"/>
<stop offset="0.8412" stop-color="#FFA71C" stop-opacity="0.4"/>
<stop offset="0.8962" stop-color="#FFB01C" stop-opacity="0.4994"/>
<stop offset="0.8965" stop-color="#FFB01C" stop-opacity="0.5"/>
<stop offset="0.9317" stop-color="#FFB01C" stop-opacity="0.5"/>
<stop offset="1" stop-color="#FFA71C" stop-opacity="0"/>
</radialGradient>
<radialGradient id="paint30_radial_466_11685" cx="0" cy="0" r="1" gradientUnits="userSpaceOnUse" gradientTransform="translate(1326.59 375.907) scale(47.7372 41.5863)">
<stop stop-color="#FFA71C" stop-opacity="0.4583"/>
<stop offset="0.6451" stop-color="#FFA71C" stop-opacity="0.4"/>
<stop offset="0.8412" stop-color="#FFA71C" stop-opacity="0.4"/>
<stop offset="0.8962" stop-color="#FFB01C" stop-opacity="0.4994"/>
<stop offset="0.8965" stop-color="#FFB01C" stop-opacity="0.5"/>
<stop offset="0.9317" stop-color="#FFB01C" stop-opacity="0.5"/>
<stop offset="1" stop-color="#FFA71C" stop-opacity="0"/>
</radialGradient>
<linearGradient id="paint31_linear_466_11685" x1="1332.83" y1="400.094" x2="1332.83" y2="498.251" gradientUnits="userSpaceOnUse">
<stop stop-color="#FFA71C" stop-opacity="0.4583"/>
<stop offset="1" stop-color="#FFA71C" stop-opacity="0"/>
</linearGradient>
<linearGradient id="paint32_linear_466_11685" x1="703.745" y1="364.211" x2="703.745" y2="462.368" gradientUnits="userSpaceOnUse">
<stop stop-color="#FFA71C" stop-opacity="0.4583"/>
<stop offset="1" stop-color="#FFA71C" stop-opacity="0"/>
</linearGradient>
<linearGradient id="paint33_linear_466_11685" x1="1357.17" y1="495.508" x2="1357.17" y2="593.665" gradientUnits="userSpaceOnUse">
<stop stop-color="#FFA71C" stop-opacity="0.4583"/>
<stop offset="1" stop-color="#FFA71C" stop-opacity="0"/>
</linearGradient>
<linearGradient id="paint34_linear_466_11685" x1="633.846" y1="485.997" x2="633.846" y2="584.154" gradientUnits="userSpaceOnUse">
<stop stop-color="#FFA71C" stop-opacity="0.4583"/>
<stop offset="1" stop-color="#FFA71C" stop-opacity="0"/>
</linearGradient>
<linearGradient id="paint35_linear_466_11685" x1="523.383" y1="550.435" x2="523.383" y2="648.592" gradientUnits="userSpaceOnUse">
<stop stop-color="#FFA71C" stop-opacity="0.4583"/>
<stop offset="1" stop-color="#FFA71C" stop-opacity="0"/>
</linearGradient>
<linearGradient id="paint36_linear_466_11685" x1="525.88" y1="542.824" x2="525.88" y2="640.981" gradientUnits="userSpaceOnUse">
<stop stop-color="#FFA71C" stop-opacity="0.4583"/>
<stop offset="1" stop-color="#FFA71C" stop-opacity="0"/>
</linearGradient>
<linearGradient id="paint37_linear_466_11685" x1="491.555" y1="598.278" x2="491.555" y2="696.434" gradientUnits="userSpaceOnUse">
<stop stop-color="#FFA71C" stop-opacity="0.4583"/>
<stop offset="1" stop-color="#FFA71C" stop-opacity="0"/>
</linearGradient>
<linearGradient id="paint38_linear_466_11685" x1="562.39" y1="253.301" x2="562.39" y2="351.458" gradientUnits="userSpaceOnUse">
<stop stop-color="#FFA71C" stop-opacity="0.4583"/>
<stop offset="1" stop-color="#FFA71C" stop-opacity="0"/>
</linearGradient>
<linearGradient id="paint39_linear_466_11685" x1="89.6415" y1="171.75" x2="89.6415" y2="269.907" gradientUnits="userSpaceOnUse">
<stop stop-color="#FFA71C" stop-opacity="0.4583"/>
<stop offset="1" stop-color="#FFA71C" stop-opacity="0"/>
</linearGradient>
<linearGradient id="paint40_linear_466_11685" x1="197.296" y1="159.52" x2="197.296" y2="257.676" gradientUnits="userSpaceOnUse">
<stop stop-color="#FFA71C" stop-opacity="0.4583"/>
<stop offset="1" stop-color="#FFA71C" stop-opacity="0"/>
</linearGradient>
<linearGradient id="paint41_linear_466_11685" x1="203.539" y1="111.677" x2="203.539" y2="209.834" gradientUnits="userSpaceOnUse">
<stop stop-color="#FFA71C" stop-opacity="0.4583"/>
<stop offset="1" stop-color="#FFA71C" stop-opacity="0"/>
</linearGradient>
<linearGradient id="paint42_linear_466_11685" x1="973.664" y1="411.782" x2="973.664" y2="509.939" gradientUnits="userSpaceOnUse">
<stop stop-color="#FFA71C" stop-opacity="0.4583"/>
<stop offset="1" stop-color="#FFA71C" stop-opacity="0"/>
</linearGradient>
<linearGradient id="paint43_linear_466_11685" x1="978.656" y1="458.54" x2="978.656" y2="556.697" gradientUnits="userSpaceOnUse">
<stop stop-color="#FFA71C" stop-opacity="0.4583"/>
<stop offset="1" stop-color="#FFA71C" stop-opacity="0"/>
</linearGradient>
<linearGradient id="paint44_linear_466_11685" x1="115.852" y1="325.067" x2="115.852" y2="423.223" gradientUnits="userSpaceOnUse">
<stop stop-color="#FFA71C" stop-opacity="0.4583"/>
<stop offset="1" stop-color="#FFA71C" stop-opacity="0"/>
</linearGradient>
<linearGradient id="paint45_linear_466_11685" x1="493.114" y1="251.672" x2="493.114" y2="349.829" gradientUnits="userSpaceOnUse">
<stop stop-color="#FFA71C" stop-opacity="0.4583"/>
<stop offset="1" stop-color="#FFA71C" stop-opacity="0"/>
</linearGradient>
<linearGradient id="paint46_linear_466_11685" x1="838.861" y1="543.095" x2="838.861" y2="641.252" gradientUnits="userSpaceOnUse">
<stop stop-color="#FFA71C" stop-opacity="0.4583"/>
<stop offset="1" stop-color="#FFA71C" stop-opacity="0"/>
</linearGradient>
<linearGradient id="paint47_linear_466_11685" x1="1381.82" y1="226.662" x2="1381.82" y2="324.818" gradientUnits="userSpaceOnUse">
<stop stop-color="#FFA71C" stop-opacity="0.4583"/>
<stop offset="1" stop-color="#FFA71C" stop-opacity="0"/>
</linearGradient>
<linearGradient id="paint48_linear_466_11685" x1="842.604" y1="590.938" x2="842.604" y2="689.094" gradientUnits="userSpaceOnUse">
<stop stop-color="#FFA71C" stop-opacity="0.4583"/>
<stop offset="1" stop-color="#FFA71C" stop-opacity="0"/>
</linearGradient>
<radialGradient id="paint49_radial_466_11685" cx="0" cy="0" r="1" gradientUnits="userSpaceOnUse" gradientTransform="translate(1189.91 313.382) scale(54.3014 47.3046)">
<stop stop-color="#FFA71C" stop-opacity="0.4583"/>
<stop offset="0.8432" stop-color="#FFA71C" stop-opacity="0.4583"/>
<stop offset="1" stop-color="#FFA71C" stop-opacity="0"/>
</radialGradient>
<radialGradient id="paint50_radial_466_11685" cx="0" cy="0" r="1" gradientUnits="userSpaceOnUse" gradientTransform="translate(1182.11 355.52) scale(47.7372 41.5863)">
<stop stop-color="#FFA71C" stop-opacity="0.4583"/>
<stop offset="0.6451" stop-color="#FFA71C" stop-opacity="0.4"/>
<stop offset="0.8412" stop-color="#FFA71C" stop-opacity="0.4"/>
<stop offset="0.8962" stop-color="#FFB01C" stop-opacity="0.4994"/>
<stop offset="0.8965" stop-color="#FFB01C" stop-opacity="0.5"/>
<stop offset="0.9317" stop-color="#FFB01C" stop-opacity="0.5"/>
<stop offset="1" stop-color="#FFA71C" stop-opacity="0"/>
</radialGradient>
<radialGradient id="paint51_radial_466_11685" cx="0" cy="0" r="1" gradientUnits="userSpaceOnUse" gradientTransform="translate(1047.31 503.398) scale(47.7372 41.5863)">
<stop stop-color="#FFA71C" stop-opacity="0.4583"/>
<stop offset="0.6451" stop-color="#FFA71C" stop-opacity="0.4"/>
<stop offset="0.8412" stop-color="#FFA71C" stop-opacity="0.4"/>
<stop offset="0.8962" stop-color="#FFB01C" stop-opacity="0.4994"/>
<stop offset="0.8965" stop-color="#FFB01C" stop-opacity="0.5"/>
<stop offset="0.9317" stop-color="#FFB01C" stop-opacity="0.5"/>
<stop offset="1" stop-color="#FFA71C" stop-opacity="0"/>
</radialGradient>
<linearGradient id="paint52_linear_466_11685" x1="1155.27" y1="359.864" x2="1155.27" y2="458.021" gradientUnits="userSpaceOnUse">
<stop stop-color="#FFA71C" stop-opacity="0.4583"/>
<stop offset="1" stop-color="#FFA71C" stop-opacity="0"/>
</linearGradient>
<linearGradient id="paint53_linear_466_11685" x1="1296.32" y1="467.509" x2="1296.32" y2="565.665" gradientUnits="userSpaceOnUse">
<stop stop-color="#FFA71C" stop-opacity="0.4583"/>
<stop offset="1" stop-color="#FFA71C" stop-opacity="0"/>
</linearGradient>
<linearGradient id="paint54_linear_466_11685" x1="1086" y1="358.231" x2="1086" y2="456.388" gradientUnits="userSpaceOnUse">
<stop stop-color="#FFA71C" stop-opacity="0.4583"/>
<stop offset="1" stop-color="#FFA71C" stop-opacity="0"/>
</linearGradient>
<linearGradient id="paint55_linear_466_11685" x1="552.091" y1="422.114" x2="552.091" y2="520.27" gradientUnits="userSpaceOnUse">
<stop stop-color="#FFA71C" stop-opacity="0.4583"/>
<stop offset="1" stop-color="#FFA71C" stop-opacity="0"/>
</linearGradient>
<radialGradient id="paint56_radial_466_11685" cx="0" cy="0" r="1" gradientUnits="userSpaceOnUse" gradientTransform="translate(1267.92 167.406) scale(54.3014 47.3046)">
<stop stop-color="#FFA71C" stop-opacity="0.4583"/>
<stop offset="0.8432" stop-color="#FFA71C" stop-opacity="0.4583"/>
<stop offset="1" stop-color="#FFA71C" stop-opacity="0"/>
</radialGradient>
<radialGradient id="paint57_radial_466_11685" cx="0" cy="0" r="1" gradientUnits="userSpaceOnUse" gradientTransform="translate(1219.87 175.289) scale(47.7372 41.5862)">
<stop stop-color="#FFA71C" stop-opacity="0.4583"/>
<stop offset="0.6451" stop-color="#FFA71C" stop-opacity="0.4"/>
<stop offset="0.8412" stop-color="#FFA71C" stop-opacity="0.4"/>
<stop offset="0.8962" stop-color="#FFB01C" stop-opacity="0.4994"/>
<stop offset="0.8965" stop-color="#FFB01C" stop-opacity="0.5"/>
<stop offset="0.9317" stop-color="#FFB01C" stop-opacity="0.5"/>
<stop offset="1" stop-color="#FFA71C" stop-opacity="0"/>
</radialGradient>
<linearGradient id="paint58_linear_466_11685" x1="1225.8" y1="182.895" x2="1225.8" y2="281.052" gradientUnits="userSpaceOnUse">
<stop stop-color="#FFA71C" stop-opacity="0.4583"/>
<stop offset="1" stop-color="#FFA71C" stop-opacity="0"/>
</linearGradient>
<linearGradient id="paint59_linear_466_11685" x1="931.225" y1="265.535" x2="931.225" y2="363.692" gradientUnits="userSpaceOnUse">
<stop stop-color="#FFA71C" stop-opacity="0.4583"/>
<stop offset="1" stop-color="#FFA71C" stop-opacity="0"/>
</linearGradient>
<radialGradient id="paint60_radial_466_11685" cx="0" cy="0" r="1" gradientUnits="userSpaceOnUse" gradientTransform="translate(424.152 519.981) scale(47.7372 41.5862)">
<stop stop-color="#FFA71C" stop-opacity="0.4583"/>
<stop offset="0.6451" stop-color="#FFA71C" stop-opacity="0.4"/>
<stop offset="0.8412" stop-color="#FFA71C" stop-opacity="0.4"/>
<stop offset="0.8962" stop-color="#FFB01C" stop-opacity="0.4994"/>
<stop offset="0.8965" stop-color="#FFB01C" stop-opacity="0.5"/>
<stop offset="0.9317" stop-color="#FFB01C" stop-opacity="0.5"/>
<stop offset="1" stop-color="#FFA71C" stop-opacity="0"/>
</radialGradient>
<radialGradient id="paint61_radial_466_11685" cx="0" cy="0" r="1" gradientUnits="userSpaceOnUse" gradientTransform="translate(162.035 541.738) scale(47.7372 41.5863)">
<stop stop-color="#FFA71C" stop-opacity="0.4583"/>
<stop offset="0.6451" stop-color="#FFA71C" stop-opacity="0.4"/>
<stop offset="0.8412" stop-color="#FFA71C" stop-opacity="0.4"/>
<stop offset="0.8962" stop-color="#FFB01C" stop-opacity="0.4994"/>
<stop offset="0.8965" stop-color="#FFB01C" stop-opacity="0.5"/>
<stop offset="0.9317" stop-color="#FFB01C" stop-opacity="0.5"/>
<stop offset="1" stop-color="#FFA71C" stop-opacity="0"/>
</radialGradient>
<linearGradient id="paint62_linear_466_11685" x1="400.126" y1="525.154" x2="400.126" y2="623.31" gradientUnits="userSpaceOnUse">
<stop stop-color="#FFA71C" stop-opacity="0.4583"/>
<stop offset="1" stop-color="#FFA71C" stop-opacity="0"/>
</linearGradient>
<radialGradient id="paint63_radial_466_11685" cx="0" cy="0" r="1" gradientUnits="userSpaceOnUse" gradientTransform="translate(184.502 290.821) scale(47.7372 41.5863)">
<stop stop-color="#FFA71C" stop-opacity="0.4583"/>
<stop offset="0.6451" stop-color="#FFA71C" stop-opacity="0.4"/>
<stop offset="0.8412" stop-color="#FFA71C" stop-opacity="0.4"/>
<stop offset="0.8962" stop-color="#FFB01C" stop-opacity="0.4994"/>
<stop offset="0.8965" stop-color="#FFB01C" stop-opacity="0.5"/>
<stop offset="0.9317" stop-color="#FFB01C" stop-opacity="0.5"/>
<stop offset="1" stop-color="#FFA71C" stop-opacity="0"/>
</radialGradient>
<radialGradient id="paint64_radial_466_11685" cx="0" cy="0" r="1" gradientUnits="userSpaceOnUse" gradientTransform="translate(166.717 450.661) scale(47.7372 41.5862)">
<stop stop-color="#FFA71C" stop-opacity="0.4583"/>
<stop offset="0.6451" stop-color="#FFA71C" stop-opacity="0.4"/>
<stop offset="0.8412" stop-color="#FFA71C" stop-opacity="0.4"/>
<stop offset="0.8962" stop-color="#FFB01C" stop-opacity="0.4994"/>
<stop offset="0.8965" stop-color="#FFB01C" stop-opacity="0.5"/>
<stop offset="0.9317" stop-color="#FFB01C" stop-opacity="0.5"/>
<stop offset="1" stop-color="#FFA71C" stop-opacity="0"/>
</radialGradient>
<radialGradient id="paint65_radial_466_11685" cx="0" cy="0" r="1" gradientUnits="userSpaceOnUse" gradientTransform="translate(184.19 494.157) scale(47.7372 41.5863)">
<stop stop-color="#FFA71C" stop-opacity="0.4583"/>
<stop offset="0.6451" stop-color="#FFA71C" stop-opacity="0.4"/>
<stop offset="0.8412" stop-color="#FFA71C" stop-opacity="0.4"/>
<stop offset="0.8962" stop-color="#FFB01C" stop-opacity="0.4994"/>
<stop offset="0.8965" stop-color="#FFB01C" stop-opacity="0.5"/>
<stop offset="0.9317" stop-color="#FFB01C" stop-opacity="0.5"/>
<stop offset="1" stop-color="#FFA71C" stop-opacity="0"/>
</radialGradient>
<linearGradient id="paint66_linear_466_11685" x1="160.476" y1="295.982" x2="160.476" y2="394.139" gradientUnits="userSpaceOnUse">
<stop stop-color="#FFA71C" stop-opacity="0.4583"/>
<stop offset="1" stop-color="#FFA71C" stop-opacity="0"/>
</linearGradient>
<linearGradient id="paint67_linear_466_11685" x1="341.462" y1="323.981" x2="341.462" y2="422.138" gradientUnits="userSpaceOnUse">
<stop stop-color="#FFA71C" stop-opacity="0.4583"/>
<stop offset="1" stop-color="#FFA71C" stop-opacity="0"/>
</linearGradient>
<linearGradient id="paint68_linear_466_11685" x1="341.462" y1="296.798" x2="341.462" y2="394.955" gradientUnits="userSpaceOnUse">
<stop stop-color="#FFA71C" stop-opacity="0.4583"/>
<stop offset="1" stop-color="#FFA71C" stop-opacity="0"/>
</linearGradient>
<linearGradient id="paint69_linear_466_11685" x1="1251.38" y1="588.219" x2="1251.38" y2="686.376" gradientUnits="userSpaceOnUse">
<stop stop-color="#FFA71C" stop-opacity="0.4583"/>
<stop offset="1" stop-color="#FFA71C" stop-opacity="0"/>
</linearGradient>
<linearGradient id="paint70_linear_466_11685" x1="1251.38" y1="561.036" x2="1251.38" y2="659.193" gradientUnits="userSpaceOnUse">
<stop stop-color="#FFA71C" stop-opacity="0.4583"/>
<stop offset="1" stop-color="#FFA71C" stop-opacity="0"/>
</linearGradient>
<radialGradient id="paint71_radial_466_11685" cx="0" cy="0" r="1" gradientUnits="userSpaceOnUse" gradientTransform="translate(820.762 320.18) scale(54.3014 47.3046)">
<stop stop-color="#FFA71C" stop-opacity="0.4583"/>
<stop offset="0.8432" stop-color="#FFA71C" stop-opacity="0.4583"/>
<stop offset="1" stop-color="#FFA71C" stop-opacity="0"/>
</radialGradient>
</defs>
</svg>
